<svg width="1920" height="185" viewBox="0 0 1920 185" fill="none" xmlns="http://www.w3.org/2000/svg">
<path d="M1938.43 16.0156C1938.43 7.13542 1930.91 -0.0312653 1921.79 0.223938C1774.16 4.34373 1768.61 63.1719 1610.29 63.1719C1446.21 63.1719 1446.21 0 1282.14 0C1118.06 0 1118.06 63.1719 953.989 63.1719C789.916 63.1719 789.916 0 625.847 0C461.778 0 461.778 63.1719 297.71 63.1719C139.383 63.1719 133.839 4.34373 -13.7898 0.223938C-22.9085 -0.0312653 -30.4326 7.13542 -30.4326 16.0156V178.599C-30.4326 187.318 -23.1654 194.391 -14.2072 194.391H1922.21C1931.17 194.391 1938.43 187.318 1938.43 178.599V16.0156Z" fill="#F7EBDA"/>
</svg>
